<?xml version="1.0" encoding="utf-8"?>
<!-- Generator: Adobe Illustrator 24.1.2, SVG Export Plug-In . SVG Version: 6.00 Build 0)  -->
<svg version="1.1" id="Layer_1" xmlns="http://www.w3.org/2000/svg" xmlns:xlink="http://www.w3.org/1999/xlink" x="0px" y="0px"
	 viewBox="0 0 1122 1122" style="enable-background:new 0 0 1122 1122;" xml:space="preserve">
<style type="text/css">
	.st0{fill:#0A9DAE;}
</style>
<g>
	<path class="st0" d="M159.1,962.1c-1.3,0.1-2.5-0.3-3.5-1.1c-1.6-1.4-1.9-3.8-0.7-6.7l12.6-31.2c1.7-4.3,6.3-8.7,11.1-10.7
		c2.7-1.1,5.2-1.3,7-0.6l22.2,9.4c1.5,0.6,2.5,2,2.5,3.6c0.3,4-3.5,9.5-8.8,12.9l-34.9,21.8C164.4,961,161.8,961.9,159.1,962.1z
		 M183.1,912.2c-1.5,0.1-2.9,0.4-4.3,1c-4.6,1.9-9,6.1-10.7,10.2l-12.6,31.2c-1,2.6-0.9,4.6,0.5,5.8c2,1.7,6,1.1,10.1-1.5L201,937
		c5.8-3.7,8.7-9,8.5-12.1c0-1.3-0.8-2.4-2-2.9l-22.2-9.4C184.6,912.3,183.9,912.2,183.1,912.2L183.1,912.2z"/>
	<path class="st0" d="M158.3,965.9c-1.2,0-2.4-0.3-3.4-1c-1.8-1.3-2.3-3.7-1.3-6.8l11-33.9c2.5-7.8,12.9-15.2,18.9-13.4l25.5,7.8
		c1.7,0.4,2.9,1.9,3.1,3.6c0.7,4.1-3,10.3-8.5,14.2l-36.5,26.1C163.9,964.7,160.8,965.9,158.3,965.9z M181.5,911.3
		c-5.6,0-14,6.5-16.1,13.1l-11,33.9c-0.9,2.7-0.5,4.8,1,5.9c2.3,1.7,6.9,0.7,11.3-2.4l36.5-26.1c6.1-4.3,8.8-10.2,8.2-13.4
		c-0.2-1.4-1.2-2.6-2.6-2.9l-25.5-7.8C182.6,911.4,182,911.3,181.5,911.3z"/>
	<path class="st0" d="M157.7,969.9c-1.1,0-2.3-0.3-3.2-0.8c-2-1.3-2.6-3.7-1.9-6.9l8.9-36.5c2-8.4,12.8-17.2,19.6-15.8l29,5.8
		c1.9,0.3,3.4,1.7,3.8,3.6c1.1,4.3-2.3,10.9-8.1,15.6l-37.9,30.7C164.4,968.4,160.7,969.9,157.7,969.9z M179.5,910.5
		c-6.3,0-15.5,7.9-17.3,15.3l-8.9,36.5c-0.7,2.8-0.1,5,1.5,6c2.3,1.4,7,0.9,12.4-3.5l37.8-30.7c6.2-5,8.7-11.4,7.8-14.8
		c-0.3-1.6-1.6-2.8-3.2-3l-29-5.8C180.4,910.5,180,910.5,179.5,910.5L179.5,910.5z"/>
	<path class="st0" d="M157.6,974.3c-1.1,0-2.1-0.2-3.1-0.7c-2.2-1.2-3.1-3.7-2.6-7l6.3-39.1c1.4-9,12.5-19.1,20.1-18.3l32.7,3.5
		c2.1,0.1,4,1.5,4.6,3.5c1.5,4.5-1.7,11.6-7.5,16.9l-38.9,35.7C165.2,972.3,160.9,974.3,157.6,974.3z M177.4,909.9
		c-7,0-17.1,9.5-18.4,17.7l-6.3,39.1c-0.5,3,0.3,5.1,2.1,6.1c2.7,1.4,7.9,0.5,13.6-4.8l38.9-35.7c6.3-5.8,8.4-12.6,7.3-16.1
		c-0.5-1.7-2.1-2.9-3.9-3l-32.6-3.5C177.9,909.9,177.6,909.9,177.4,909.9L177.4,909.9z"/>
	<path class="st0" d="M157.8,978.8c-1,0-2-0.2-2.9-0.6c-2.4-1.1-3.6-3.5-3.3-7l3.1-41.6c0.7-9.6,11.9-21.2,20.4-21l36.5,0.6
		c2.4-0.1,4.6,1.2,5.4,3.4c1.9,4.6-0.9,12.2-6.8,18.2l-39.6,41C166.4,976.3,161.6,978.8,157.8,978.8z M174.9,909.4
		c-7.9,0-18.7,11.3-19.4,20.3l-3.1,41.6c-0.2,3.1,0.8,5.3,2.8,6.2c3.7,1.6,9.8-0.9,14.9-6.2l39.6-41c6.3-6.5,8.1-13.7,6.6-17.4
		c-0.8-1.9-2.7-3.1-4.7-2.9l-36.5-0.6L174.9,909.4z"/>
	<path class="st0" d="M158.4,983.5c-0.9,0-1.8-0.1-2.6-0.4c-2.6-0.9-4.1-3.4-4.1-6.9l-0.6-43.9c-0.1-10.1,11.2-23.3,20.5-23.9
		l40.4-2.7v0.4v-0.4c3-0.2,5.3,1,6.4,3.3c2.4,4.7,0,12.7-5.8,19.5l-39.9,46.6C168.2,980.4,162.8,983.5,158.4,983.5z M212.7,906.5
		c-0.2,0-0.4,0-0.6,0l-40.4,2.7c-8.8,0.6-19.9,13.5-19.7,23.1l0.6,43.9c0,3.2,1.3,5.3,3.6,6.2c4.2,1.5,10.9-1.7,16.1-7.8L212,928
		c6.2-7.3,7.6-14.9,5.7-18.6C216.8,907.5,214.8,906.3,212.7,906.5z"/>
	<path class="st0" d="M159.5,988.5c-0.7,0-1.5-0.1-2.2-0.3c-2.9-0.8-4.7-3.2-5-6.8l-4.9-46c-1.1-10.6,10.1-25.4,20.3-26.9l44.5-6.5
		c3.4-0.5,6.1,0.6,7.6,3.1c2.8,4.8,0.9,13.3-4.7,20.7l-39.6,52.5C170.6,984.6,164.4,988.5,159.5,988.5z M212.2,902.3l0.1,0.4
		l-44.5,6.5c-9.7,1.4-20.7,16-19.6,26l4.9,46c0.4,3.3,1.9,5.4,4.5,6.1c4.9,1.3,12-2.6,17.3-9.6l39.6-52.5c5.4-7.2,7.3-15.3,4.7-19.8
		c-1.3-2.2-3.7-3.2-6.8-2.7L212.2,902.3z"/>
	<path class="st0" d="M161.2,993.5c-0.6,0-1.2-0.1-1.7-0.2c-3.2-0.6-5.3-3-6.1-6.7l-9.9-47.8c-2.3-11,8.7-27.6,19.9-30.1l48.6-10.9
		c3.8-0.9,7,0.2,8.8,2.8c3.3,4.8,1.9,13.8-3.4,21.9l-38.8,58.7C173.7,988.8,166.8,993.5,161.2,993.5z M212.1,898.3l0.1,0.4
		l-48.6,10.9c-10.6,2.4-21.4,18.7-19.3,29.1l9.9,47.8c0.7,3.4,2.6,5.5,5.4,6c5.6,1.1,13.1-3.7,18.4-11.7l38.8-58.7
		c5.1-7.8,6.6-16.4,3.4-21c-1.7-2.4-4.4-3.3-8-2.5L212.1,898.3z"/>
	<path class="st0" d="M163.5,998.7c-0.4,0-0.7,0-1.1-0.1c-3.5-0.4-6.1-2.6-7.3-6.4L139.6,943c-1.6-5-0.5-11.7,3.1-18.4
		c3.9-7.4,10-13.1,16-14.9l52.8-15.9l0.1,0.4l-0.1-0.4c4.3-1.3,7.9-0.4,10.2,2.5c3.9,4.9,3.1,14.1-1.9,22.9l-37.2,65.1
		C177.5,992.9,169.8,998.7,163.5,998.7z M215.1,894c-1.2,0-2.3,0.2-3.4,0.5l-52.8,15.9c-5.7,1.7-11.7,7.3-15.5,14.5
		c-3.4,6.4-4.5,13.1-3,17.8l15.6,49.2c1.1,3.5,3.4,5.5,6.6,5.8c6.3,0.7,14.2-5.1,19.3-13.9l37.2-65.1c4.8-8.4,5.6-17.5,2-22
		C219.6,895,217.4,893.9,215.1,894z"/>
	<path class="st0" d="M166.4,1003.9h-0.2c-3.8,0-7.2-2.4-8.6-6l-22-50.2c-2.2-4.9-1.7-11.8,1.3-18.9c3.6-8.5,9.9-15.3,16.5-17.8
		l56.9-21.5c4.8-1.8,9-1.1,11.8,2c4.4,4.9,4.4,14.5-0.2,23.9L187,987C182.2,997,173.7,1003.9,166.4,1003.9z M210.5,889.8l0.1,0.4
		l-56.9,21.5c-6.4,2.4-12.6,9.1-16.1,17.4c-2.9,6.9-3.4,13.5-1.3,18.2l22,50.2c1.6,3.5,4.3,5.5,7.9,5.5c7.1,0.1,15.3-6.6,20.1-16.4
		l34.9-71.7c4.4-9.1,4.6-18.4,0.4-23c-2.6-2.8-6.4-3.4-10.9-1.8L210.5,889.8z"/>
	<path class="st0" d="M170.2,1009c-3.9,0-7.4-2.1-9.3-5.5l-29.2-50.6c-2.8-4.8-3-11.8-0.6-19.3c3-9.5,9.5-17.5,16.8-20.8l60.8-27.8
		l0.2,0.4l-0.2-0.4c5.3-2.4,10.1-2,13.6,1.3c5.1,4.9,5.8,14.6,1.7,24.7l-31.7,78.4c-4.4,11-13.2,19-21.3,19.6L170.2,1009z
		 M215.2,884.2c-2.1,0-4.2,0.5-6.1,1.5l-60.9,27.8c-7.1,3.2-13.4,11-16.3,20.3c-2.3,7.2-2.1,14,0.5,18.6l29.2,50.6
		c1.8,3.4,5.5,5.5,9.4,5.1c7.8-0.5,16.3-8.4,20.6-19l31.7-78.4c3.9-9.7,3.3-19.3-1.5-23.8C220,885.2,217.6,884.2,215.2,884.2
		L215.2,884.2z"/>
	<path class="st0" d="M174.7,1014.1c-3.8,0-7.4-1.8-9.6-5l-37.2-50.4c-3.4-4.7-4.4-11.8-2.7-19.7c2.3-10.3,8.9-19.7,16.6-23.9
		l64.7-34.7c5.8-3.1,11.4-2.9,15.5,0.5c5.8,4.8,7.3,14.8,3.8,25.4l-27.5,85.2c-3.8,11.8-12.6,21-21.4,22.4
		C176.2,1014.1,175.5,1014.1,174.7,1014.1z M206.7,880.9l0.2,0.4L142.3,916c-7.6,4.1-14,13.2-16.2,23.3c-1.7,7.6-0.8,14.5,2.5,19
		l37.2,50.4c2.5,3.6,6.8,5.3,11.1,4.5c8.6-1.4,17.1-10.4,20.8-21.9l27.5-85.1c3.3-10.3,1.9-20-3.6-24.6c-3.9-3.2-9-3.3-14.6-0.4
		L206.7,880.9z"/>
	<path class="st0" d="M180.2,1019c-3.8,0-7.3-1.6-9.9-4.4l-46-49.4c-4.2-4.5-6-11.8-4.9-20c1.5-11.2,7.8-21.7,16.1-26.9l68.2-42.4
		l0.2,0.3l-0.2-0.3c6.3-3.9,12.7-4.1,17.6-0.6c6.5,4.7,8.9,14.9,6.2,26l-22.2,91.8c-3,12.4-11.7,22.9-21.2,25.4
		C182.9,1018.9,181.5,1019.1,180.2,1019z M204.2,876.7L135.9,919c-8.1,5-14.3,15.3-15.8,26.3c-1.1,8,0.6,15,4.7,19.4l46.1,49.4
		c3.3,3.6,8.4,5,13.1,3.6c9.2-2.4,17.7-12.6,20.6-24.8l22.2-91.8c2.6-10.8,0.3-20.7-5.9-25.1C216.3,872.7,210.2,872.9,204.2,876.7
		L204.2,876.7z"/>
	<path class="st0" d="M186.5,1023.7c-3.7,0-7.2-1.3-9.9-3.7l-55.8-47.6c-5-4.3-7.7-11.8-7.3-20.4c0.5-11.9,6.5-23.6,15.3-29.8
		l71.4-50.7l0.2,0.3l-0.2-0.3c6.8-4.8,14.1-5.5,19.9-1.9c7.3,4.5,10.7,14.6,8.8,26.3l-15.7,98.3c-2.1,13.2-10.3,24.6-20.5,28.3
		C190.8,1023.3,188.7,1023.7,186.5,1023.7z M212.1,868.1c-4.1,0.1-8.1,1.6-11.4,4.1l-71.4,50.7c-8.5,6.1-14.4,17.5-14.9,29.2
		c-0.4,8.4,2.2,15.6,7,19.8l55.8,47.6c4.3,3.6,9.7,4.5,15.4,2.4c9.9-3.6,17.9-14.8,20-27.7l15.6-98.3c1.8-11.4-1.4-21.2-8.5-25.5
		C217.4,868.9,214.7,868.1,212.1,868.1z"/>
	<path class="st0" d="M193.8,1028c-3.5,0-6.9-1-9.8-3l-66.3-44.8c-6-4.1-9.7-11.7-10.1-20.9c-0.5-12.5,5-25.2,14-32.5l74.1-59.7
		c7.3-5.9,15.5-7.2,22.4-3.5c8.1,4.3,12.6,14.4,11.7,26.5L222,994.6c-1,13.6-8.7,26.2-19.2,31.3C200,1027.2,197,1028,193.8,1028z
		 M196,867.4l0.3,0.3l-74.1,59.7c-8.8,7.1-14.2,19.6-13.7,31.8c0.4,8.9,3.9,16.3,9.7,20.2l66.3,44.8c5.3,3.6,11.7,3.9,18,0.8
		c10.2-5,17.8-17.3,18.8-30.6l7.8-104.5c0.9-11.7-3.5-21.6-11.3-25.7c-6.6-3.5-14.4-2.2-21.5,3.5L196,867.4z"/>
	<path class="st0" d="M202.2,1031.9c-3.3,0-6.5-0.8-9.4-2.4L115,988.6c-7.2-3.8-12-11.5-13.2-21.3c-1.7-12.9,3.2-26.7,12.4-35
		l76.3-69.4c7.7-7,16.8-9,25-5.5c9,3.9,14.8,14,14.9,26.4l1.4,110.3c0.2,14.1-6.6,27.4-17.4,34
		C210.8,1030.5,206.6,1031.8,202.2,1031.9z M190.7,863.3l0.3,0.3L114.7,933c-9,8.2-13.8,21.6-12.1,34.3c1.2,9.5,5.9,17,12.8,20.7
		l77.8,40.9c6.5,3.4,13.9,3,20.9-1.3c10.5-6.4,17.2-19.5,17-33.3l-1.5-110.3c-0.2-12-5.7-21.9-14.4-25.7c-7.8-3.4-16.6-1.4-24.1,5.4
		L190.7,863.3z"/>
	<path class="st0" d="M211.6,1035.2c-3,0-5.9-0.6-8.7-1.7l-90-35.8c-8.5-3.4-14.6-11.3-16.8-21.7c-2.9-13.4,1-27.3,10.5-37.2
		l77.7-79.8c8-8.2,18.3-11.1,27.6-7.9c10.2,3.5,17.1,13.3,18.5,26.1l12.3,115.5c1.5,14.2-4.4,28.5-14.9,36.6
		C223.1,1033.1,217.4,1035.1,211.6,1035.2z M184.6,859.4l0.3,0.3l-77.8,79.8c-9.2,9.7-13.1,23.4-10.3,36.5
		c2.2,10.1,8.1,17.8,16.3,21.1l90,35.8c7.8,3.1,16.6,1.7,24-4c10.4-7.9,16.1-21.9,14.6-35.8l-12.3-115.5c-1.3-12.5-8-22-17.9-25.5
		c-9-3.1-19.1-0.3-26.8,7.7L184.6,859.4z"/>
	<path class="st0" d="M222,1037.8c-2.5,0-5.1-0.3-7.5-1l-103.1-29.3c-10-2.8-17.6-10.8-20.9-22c-4.1-13.6-1-28.4,8.2-39.2l78.3-90.8
		c8.2-9.5,19.5-13.4,30.3-10.6c11.3,2.9,19.7,12.5,22.4,25.6l24.8,120c3,14.3-1.6,29.1-11.9,38.7
		C236.5,1034.8,229.3,1037.8,222,1037.8z M177.2,855.8l0.3,0.3l-78.3,90.8c-9,10.6-12,25.1-8.1,38.4c3.3,10.9,10.7,18.7,20.4,21.4
		l103.1,29.3c9.5,2.7,19.4,0,27.3-7.3c10.2-9.8,14.7-24.2,11.7-38l-24.8-120c-2.6-12.8-10.8-22.1-21.8-24.9
		c-10.5-2.7-21.5,1.2-29.5,10.4L177.2,855.8z"/>
	<path class="st0" d="M233.4,1039.6c-2,0-3.9-0.2-5.8-0.5l-117-21.2c-11.7-2.1-21-10.2-25.7-22.1c-5.3-13.7-3.1-29.1,5.7-40.8
		l77.9-102.4l0.3,0.3l-0.3-0.3c8.2-10.8,20.5-16,32.9-13.8c12.6,2.2,22.6,11.4,26.8,24.7l39.1,123.6c4.5,14.1,1.3,29.4-8.4,40.6
		C252,1035.3,242.9,1039.6,233.4,1039.6z M195.9,839c-10.2,0-19.9,5-26.7,14L91.3,955.4c-8.7,11.5-10.8,26.6-5.6,40
		c4.5,11.7,13.7,19.6,25.1,21.6l117,21.2c11.3,2,22.4-2.1,30.6-11.3c9.5-10.9,12.6-26,8.2-39.8l-39.1-123.6
		c-4.1-13-13.9-22-26.1-24.1C199.5,839.2,197.7,839,195.9,839z"/>
	<path class="st0" d="M245.6,1040.4c-1.1,0-2.2,0-3.3-0.1l-131.5-11.5c-13.4-1.2-25.1-9.4-31.1-22c-6.6-13.6-5.4-29.6,3-42.1
		l76.3-114.5l0.3,0.2l-0.3-0.2c8.1-12.2,21.3-18.7,35.3-17.5s25.9,10,31.7,23.3l55.3,126c6.1,13.8,4.4,29.8-4.4,42
		C269.7,1034.3,258,1040.4,245.6,1040.4z M190.8,833.3c-12.5,0-24,6.3-31.3,17.3L83.3,965.1c-8.3,12.3-9.4,28-2.9,41.3
		c5.9,12.4,17.3,20.4,30.5,21.6l131.5,11.5c13.1,1.1,25.7-4.8,33.7-16c8.7-12,10.3-27.7,4.3-41.2l-55.3-126
		c-5.8-13.1-17.4-21.7-31.1-22.9C193,833.4,192,833.3,190.8,833.3z"/>
	<path class="st0" d="M258.7,1040.2H112c-23.8,0-43.1-19.3-43.1-43.1c0-7.6,2-15,5.8-21.6l73.4-127c7.6-13.4,21.9-21.6,37.3-21.5
		l0,0c15.4-0.1,29.7,8.1,37.3,21.5l73.4,127c11.9,20.6,4.8,47-15.8,58.9C273.7,1038.3,266.3,1040.3,258.7,1040.2L258.7,1040.2z
		 M148.4,848.7l0.4,0.2L75.4,976c-11.7,20.2-4.7,46.1,15.5,57.8c6.4,3.7,13.7,5.7,21.1,5.7h146.7c23.4,0,42.3-19,42.3-42.3
		c0-7.4-2-14.7-5.7-21.1L222,848.9c-11.7-20.2-37.5-27.2-57.8-15.5c-6.4,3.7-11.8,9.1-15.5,15.5L148.4,848.7z"/>
</g>
</svg>
